<svg width="24" height="25" viewBox="0 0 24 25" fill="none" xmlns="http://www.w3.org/2000/svg">
<path d="M17 21.5V19.5C17 18.4391 16.5786 17.4217 15.8284 16.6716C15.0783 15.9214 14.0609 15.5 13 15.5H5C3.93913 15.5 2.92172 15.9214 2.17157 16.6716C1.42143 17.4217 1 18.4391 1 19.5V21.5" stroke="#878787" stroke-width="2" stroke-linecap="round" stroke-linejoin="round"/>
<path d="M9 11.5C11.2091 11.5 13 9.70914 13 7.5C13 5.29086 11.2091 3.5 9 3.5C6.79086 3.5 5 5.29086 5 7.5C5 9.70914 6.79086 11.5 9 11.5Z" stroke="#878787" stroke-width="2" stroke-linecap="round" stroke-linejoin="round"/>
<path d="M23 21.4999V19.4999C22.9993 18.6136 22.7044 17.7527 22.1614 17.0522C21.6184 16.3517 20.8581 15.8515 20 15.6299" stroke="#878787" stroke-width="2" stroke-linecap="round" stroke-linejoin="round"/>
<path d="M16 3.62988C16.8604 3.85018 17.623 4.35058 18.1676 5.05219C18.7122 5.7538 19.0078 6.61671 19.0078 7.50488C19.0078 8.39305 18.7122 9.25596 18.1676 9.95757C17.623 10.6592 16.8604 11.1596 16 11.3799" stroke="#878787" stroke-width="2" stroke-linecap="round" stroke-linejoin="round"/>
</svg>
